<svg width="24" height="48" viewBox="0 0 24 48" fill="none" xmlns="http://www.w3.org/2000/svg">
<path d="M2 20H22V22H2V20ZM4 12H6V19H4V12ZM9 12H11V19H9V12ZM13 12H15V19H13V12ZM18 12H20V19H18V12ZM2 7L12 2L22 7V11H2V7ZM4 8.236V9H20V8.236L12 4.236L4 8.236ZM12 8C11.7348 8 11.4804 7.89464 11.2929 7.70711C11.1054 7.51957 11 7.26522 11 7C11 6.73478 11.1054 6.48043 11.2929 6.29289C11.4804 6.10536 11.7348 6 12 6C12.2652 6 12.5196 6.10536 12.7071 6.29289C12.8946 6.48043 13 6.73478 13 7C13 7.26522 12.8946 7.51957 12.7071 7.70711C12.5196 7.89464 12.2652 8 12 8Z" fill="#303030"/>
<path d="M2 44H22V46H2V44ZM4 36H6V43H4V36ZM9 36H11V43H9V36ZM13 36H15V43H13V36ZM18 36H20V43H18V36ZM2 31L12 26L22 31V35H2V31ZM4 32.236V33H20V32.236L12 28.236L4 32.236ZM12 32C11.7348 32 11.4804 31.8946 11.2929 31.7071C11.1054 31.5196 11 31.2652 11 31C11 30.7348 11.1054 30.4804 11.2929 30.2929C11.4804 30.1054 11.7348 30 12 30C12.2652 30 12.5196 30.1054 12.7071 30.2929C12.8946 30.4804 13 30.7348 13 31C13 31.2652 12.8946 31.5196 12.7071 31.7071C12.5196 31.8946 12.2652 32 12 32Z" fill="#FB5039"/>
</svg>
