<svg width="24" height="48" viewBox="0 0 24 48" fill="none" xmlns="http://www.w3.org/2000/svg">
<path d="M17.5556 15.2H20.3333V5.6H8.66667V7.2H16.5556C17.1078 7.2 17.5556 7.64771 17.5556 8.2V15.2ZM17.5556 16.8V19.2C17.5556 19.6416 17.0556 20 16.4367 20H3.11889C2.97236 20.0006 2.82711 19.9804 2.69147 19.9405C2.55583 19.9006 2.43248 19.8418 2.32851 19.7674C2.22454 19.6931 2.14199 19.6047 2.08562 19.5073C2.02924 19.4099 2.00014 19.3055 2 19.2L2.00333 8C2.00333 7.5584 2.50333 7.2 3.12222 7.2H6.44444V4.8C6.44444 4.58783 6.56151 4.38434 6.76988 4.23431C6.97826 4.08429 7.26087 4 7.55556 4H20.8889C21.1836 4 21.4662 4.08429 21.6746 4.23431C21.8829 4.38434 22 4.58783 22 4.8V16C22 16.2122 21.8829 16.4156 21.6746 16.5657C21.4662 16.7157 21.1836 16.8 20.8889 16.8H17.5556ZM3.66667 8.8V18.4H15.8889V8.8H3.66667Z" fill="#303030"/>
<path d="M7.16461 13.6527C7.12346 13.6013 7.08573 13.5273 7.05144 13.4309C7.01715 13.3344 7 13.2315 7 13.1222C7 12.9164 7.04801 12.7717 7.14403 12.6881C7.24691 12.5981 7.37037 12.5531 7.5144 12.5531H11.8354C11.8697 12.6109 11.904 12.6881 11.9383 12.7846C11.9794 12.881 12 12.9839 12 13.0932C12 13.2926 11.9486 13.4373 11.8457 13.5273C11.7497 13.6109 11.6296 13.6527 11.4856 13.6527H10.858C10.8237 13.9871 10.6934 14.2797 10.4671 14.5305C10.2407 14.7749 9.91495 14.9518 9.48971 15.0611L10.9815 16.0064C10.9815 16.2958 10.9026 16.5338 10.7449 16.7203C10.594 16.9068 10.3642 17 10.0556 17C9.87723 17 9.71262 16.955 9.56173 16.865C9.4177 16.7749 9.27709 16.672 9.13992 16.5563L7.42181 15.0804C7.3738 14.9839 7.34979 14.8714 7.34979 14.7428C7.34979 14.4855 7.45953 14.2926 7.67901 14.164H8.28601C8.50549 14.164 8.67695 14.119 8.80041 14.0289C8.93073 13.9325 9.02332 13.8071 9.07819 13.6527H7.16461ZM7.16461 12.0997C7.12346 12.0418 7.08573 11.9646 7.05144 11.8682C7.01715 11.7717 7 11.6688 7 11.5595C7 11.3601 7.04801 11.2186 7.14403 11.135C7.24691 11.045 7.37037 11 7.5144 11H11.8354C11.8697 11.0514 11.904 11.1286 11.9383 11.2315C11.9794 11.328 12 11.4277 12 11.5305C12 11.7363 11.9486 11.8842 11.8457 11.9743C11.7497 12.0579 11.6296 12.0997 11.4856 12.0997H7.16461Z" fill="#303030"/>
<path d="M17.5556 39.2H20.3333V29.6H8.66667V31.2H16.5556C17.1078 31.2 17.5556 31.6477 17.5556 32.2V39.2ZM17.5556 40.8V43.2C17.5556 43.6416 17.0556 44 16.4367 44H3.11889C2.97236 44.0006 2.82711 43.9804 2.69147 43.9405C2.55583 43.9006 2.43248 43.8418 2.32851 43.7674C2.22454 43.6931 2.14199 43.6047 2.08562 43.5073C2.02924 43.4099 2.00014 43.3055 2 43.2L2.00333 32C2.00333 31.5584 2.50333 31.2 3.12222 31.2H6.44444V28.8C6.44444 28.5878 6.56151 28.3843 6.76988 28.2343C6.97826 28.0843 7.26087 28 7.55556 28H20.8889C21.1836 28 21.4662 28.0843 21.6746 28.2343C21.8829 28.3843 22 28.5878 22 28.8V40C22 40.2122 21.8829 40.4156 21.6746 40.5657C21.4662 40.7157 21.1836 40.8 20.8889 40.8H17.5556ZM3.66667 32.8V42.4H15.8889V32.8H3.66667Z" fill="#003366"/>
<path d="M7.16461 37.6527C7.12346 37.6013 7.08573 37.5273 7.05144 37.4309C7.01715 37.3344 7 37.2315 7 37.1222C7 36.9164 7.04801 36.7717 7.14403 36.6881C7.24691 36.5981 7.37037 36.5531 7.5144 36.5531H11.8354C11.8697 36.6109 11.904 36.6881 11.9383 36.7846C11.9794 36.881 12 36.9839 12 37.0932C12 37.2926 11.9486 37.4373 11.8457 37.5273C11.7497 37.6109 11.6296 37.6527 11.4856 37.6527H10.858C10.8237 37.9871 10.6934 38.2797 10.4671 38.5305C10.2407 38.7749 9.91495 38.9518 9.48971 39.0611L10.9815 40.0064C10.9815 40.2958 10.9026 40.5338 10.7449 40.7203C10.594 40.9068 10.3642 41 10.0556 41C9.87723 41 9.71262 40.955 9.56173 40.865C9.4177 40.7749 9.27709 40.672 9.13992 40.5563L7.42181 39.0804C7.3738 38.9839 7.34979 38.8714 7.34979 38.7428C7.34979 38.4855 7.45953 38.2926 7.67901 38.164H8.28601C8.50549 38.164 8.67695 38.119 8.80041 38.0289C8.93073 37.9325 9.02332 37.8071 9.07819 37.6527H7.16461ZM7.16461 36.0997C7.12346 36.0418 7.08573 35.9646 7.05144 35.8682C7.01715 35.7717 7 35.6688 7 35.5595C7 35.3601 7.04801 35.2186 7.14403 35.135C7.24691 35.045 7.37037 35 7.5144 35H11.8354C11.8697 35.0514 11.904 35.1286 11.9383 35.2315C11.9794 35.328 12 35.4277 12 35.5305C12 35.7363 11.9486 35.8842 11.8457 35.9743C11.7497 36.0579 11.6296 36.0997 11.4856 36.0997H7.16461Z" fill="#003366"/>
</svg>
