<svg width="24" height="48" viewBox="0 0 24 48" fill="none" xmlns="http://www.w3.org/2000/svg">
<path d="M3 3H21C21.2652 3 21.5196 3.10536 21.7071 3.29289C21.8946 3.48043 22 3.73478 22 4V20C22 20.2652 21.8946 20.5196 21.7071 20.7071C21.5196 20.8946 21.2652 21 21 21H3C2.73478 21 2.48043 20.8946 2.29289 20.7071C2.10536 20.5196 2 20.2652 2 20V4C2 3.73478 2.10536 3.48043 2.29289 3.29289C2.48043 3.10536 2.73478 3 3 3ZM20 11H4V19H20V11ZM20 9V5H4V9H20ZM14 15H18V17H14V15Z" fill="white"/>
<path d="M3 3H21C21.2652 3 21.5196 3.10536 21.7071 3.29289C21.8946 3.48043 22 3.73478 22 4V20C22 20.2652 21.8946 20.5196 21.7071 20.7071C21.5196 20.8946 21.2652 21 21 21H3C2.73478 21 2.48043 20.8946 2.29289 20.7071C2.10536 20.5196 2 20.2652 2 20V4C2 3.73478 2.10536 3.48043 2.29289 3.29289C2.48043 3.10536 2.73478 3 3 3ZM20 11H4V19H20V11ZM20 9V5H4V9H20ZM14 15H18V17H14V15Z" fill="#303030"/>
<path d="M3 27H21C21.2652 27 21.5196 27.1054 21.7071 27.2929C21.8946 27.4804 22 27.7348 22 28V44C22 44.2652 21.8946 44.5196 21.7071 44.7071C21.5196 44.8946 21.2652 45 21 45H3C2.73478 45 2.48043 44.8946 2.29289 44.7071C2.10536 44.5196 2 44.2652 2 44V28C2 27.7348 2.10536 27.4804 2.29289 27.2929C2.48043 27.1054 2.73478 27 3 27ZM20 35H4V43H20V35ZM20 33V29H4V33H20ZM14 39H18V41H14V39Z" fill="white"/>
<path d="M3 27H21C21.2652 27 21.5196 27.1054 21.7071 27.2929C21.8946 27.4804 22 27.7348 22 28V44C22 44.2652 21.8946 44.5196 21.7071 44.7071C21.5196 44.8946 21.2652 45 21 45H3C2.73478 45 2.48043 44.8946 2.29289 44.7071C2.10536 44.5196 2 44.2652 2 44V28C2 27.7348 2.10536 27.4804 2.29289 27.2929C2.48043 27.1054 2.73478 27 3 27ZM20 35H4V43H20V35ZM20 33V29H4V33H20ZM14 39H18V41H14V39Z" fill="#FB5039"/>
</svg>
