<svg width="24" height="48" viewBox="0 0 24 48" fill="none" xmlns="http://www.w3.org/2000/svg">
<path d="M9.975 8.97501C10.4645 8.48551 10.7978 7.86187 10.9328 7.18294C11.0678 6.50402 10.9985 5.8003 10.7335 5.16078C10.4686 4.52126 10.02 3.97466 9.44446 3.59009C8.8689 3.20552 8.19222 3.00026 7.5 3.00026C6.80778 3.00026 6.13111 3.20552 5.55554 3.59009C4.97998 3.97466 4.53138 4.52126 4.26646 5.16078C4.00154 5.8003 3.93221 6.50402 4.06723 7.18294C4.20225 7.86187 4.53555 8.48551 5.025 8.97501L7.5 11.45L9.975 8.97501ZM7.5 14.278L3.61 10.39C2.84107 9.62071 2.3175 8.6407 2.10549 7.57388C1.89349 6.50705 2.00255 5.40132 2.41891 4.39648C2.83527 3.39163 3.54022 2.5328 4.44463 1.92857C5.34905 1.32434 6.41232 1.00183 7.5 1.00183C8.58769 1.00183 9.65096 1.32434 10.5554 1.92857C11.4598 2.5328 12.1647 3.39163 12.5811 4.39648C12.9975 5.40132 13.1065 6.50705 12.8945 7.57388C12.6825 8.6407 12.1589 9.62071 11.39 10.39L7.5 14.28V14.278ZM7.5 8.00001C7.10218 8.00001 6.72065 7.84197 6.43934 7.56067C6.15804 7.27936 6 6.89783 6 6.50001C6 6.10218 6.15804 5.72065 6.43934 5.43935C6.72065 5.15804 7.10218 5.00001 7.5 5.00001C7.89783 5.00001 8.27936 5.15804 8.56066 5.43935C8.84197 5.72065 9 6.10218 9 6.50001C9 6.89783 8.84197 7.27936 8.56066 7.56067C8.27936 7.84197 7.89783 8.00001 7.5 8.00001ZM16.5 20.45L18.975 17.975C19.4645 17.4855 19.7978 16.8619 19.9328 16.1829C20.0678 15.504 19.9985 14.8003 19.7335 14.1608C19.4686 13.5213 19.02 12.9747 18.4445 12.5901C17.8689 12.2055 17.1922 12.0003 16.5 12.0003C15.8078 12.0003 15.1311 12.2055 14.5555 12.5901C13.98 12.9747 13.5314 13.5213 13.2665 14.1608C13.0015 14.8003 12.9322 15.504 13.0672 16.1829C13.2022 16.8619 13.5356 17.4855 14.025 17.975L16.5 20.45ZM20.39 19.39L16.5 23.278L12.61 19.389C11.8411 18.6197 11.3175 17.6397 11.1055 16.5729C10.8935 15.5061 11.0026 14.4003 11.4189 13.3955C11.8353 12.3906 12.5402 11.5318 13.4446 10.9276C14.349 10.3233 15.4123 10.0008 16.5 10.0008C17.5877 10.0008 18.651 10.3233 19.5554 10.9276C20.4598 11.5318 21.1647 12.3906 21.5811 13.3955C21.9974 14.4003 22.1065 15.5061 21.8945 16.5729C21.6825 17.6397 21.1589 18.6197 20.39 19.389V19.39ZM16.5 17C16.1022 17 15.7206 16.842 15.4393 16.5607C15.158 16.2794 15 15.8978 15 15.5C15 15.1022 15.158 14.7206 15.4393 14.4393C15.7206 14.158 16.1022 14 16.5 14C16.8978 14 17.2794 14.158 17.5607 14.4393C17.842 14.7206 18 15.1022 18 15.5C18 15.8978 17.842 16.2794 17.5607 16.5607C17.2794 16.842 16.8978 17 16.5 17Z" fill="#303030"/>
<path d="M9.975 32.975C10.4645 32.4855 10.7978 31.8619 10.9328 31.1829C11.0678 30.504 10.9985 29.8003 10.7335 29.1608C10.4686 28.5213 10.02 27.9747 9.44446 27.5901C8.8689 27.2055 8.19222 27.0003 7.5 27.0003C6.80778 27.0003 6.13111 27.2055 5.55554 27.5901C4.97998 27.9747 4.53138 28.5213 4.26646 29.1608C4.00154 29.8003 3.93221 30.504 4.06723 31.1829C4.20225 31.8619 4.53555 32.4855 5.025 32.975L7.5 35.45L9.975 32.975ZM7.5 38.278L3.61 34.39C2.84107 33.6207 2.3175 32.6407 2.10549 31.5739C1.89349 30.5071 2.00255 29.4013 2.41891 28.3965C2.83527 27.3916 3.54022 26.5328 4.44463 25.9286C5.34905 25.3243 6.41232 25.0018 7.5 25.0018C8.58769 25.0018 9.65096 25.3243 10.5554 25.9286C11.4598 26.5328 12.1647 27.3916 12.5811 28.3965C12.9975 29.4013 13.1065 30.5071 12.8945 31.5739C12.6825 32.6407 12.1589 33.6207 11.39 34.39L7.5 38.28V38.278ZM7.5 32C7.10218 32 6.72065 31.842 6.43934 31.5607C6.15804 31.2794 6 30.8978 6 30.5C6 30.1022 6.15804 29.7206 6.43934 29.4393C6.72065 29.158 7.10218 29 7.5 29C7.89783 29 8.27936 29.158 8.56066 29.4393C8.84197 29.7206 9 30.1022 9 30.5C9 30.8978 8.84197 31.2794 8.56066 31.5607C8.27936 31.842 7.89783 32 7.5 32ZM16.5 44.45L18.975 41.975C19.4645 41.4855 19.7978 40.8619 19.9328 40.1829C20.0678 39.504 19.9985 38.8003 19.7335 38.1608C19.4686 37.5213 19.02 36.9747 18.4445 36.5901C17.8689 36.2055 17.1922 36.0003 16.5 36.0003C15.8078 36.0003 15.1311 36.2055 14.5555 36.5901C13.98 36.9747 13.5314 37.5213 13.2665 38.1608C13.0015 38.8003 12.9322 39.504 13.0672 40.1829C13.2022 40.8619 13.5356 41.4855 14.025 41.975L16.5 44.45ZM20.39 43.39L16.5 47.278L12.61 43.389C11.8411 42.6197 11.3175 41.6397 11.1055 40.5729C10.8935 39.5061 11.0026 38.4003 11.4189 37.3955C11.8353 36.3906 12.5402 35.5318 13.4446 34.9276C14.349 34.3233 15.4123 34.0008 16.5 34.0008C17.5877 34.0008 18.651 34.3233 19.5554 34.9276C20.4598 35.5318 21.1647 36.3906 21.5811 37.3955C21.9974 38.4003 22.1065 39.5061 21.8945 40.5729C21.6825 41.6397 21.1589 42.6197 20.39 43.389V43.39ZM16.5 41C16.1022 41 15.7206 40.842 15.4393 40.5607C15.158 40.2794 15 39.8978 15 39.5C15 39.1022 15.158 38.7206 15.4393 38.4393C15.7206 38.158 16.1022 38 16.5 38C16.8978 38 17.2794 38.158 17.5607 38.4393C17.842 38.7206 18 39.1022 18 39.5C18 39.8978 17.842 40.2794 17.5607 40.5607C17.2794 40.842 16.8978 41 16.5 41Z" fill="#003366"/>
</svg>
