<svg width="24" height="48" viewBox="0 0 24 48" fill="none" xmlns="http://www.w3.org/2000/svg">
<path d="M17.6569 14.828L16.2429 13.414L17.6569 12C18.0283 11.6286 18.323 11.1876 18.524 10.7023C18.725 10.217 18.8285 9.69683 18.8285 9.17152C18.8285 8.64622 18.725 8.12607 18.524 7.64075C18.323 7.15544 18.0283 6.71447 17.6569 6.34302C17.2855 5.97158 16.8445 5.67694 16.3592 5.47591C15.8739 5.27489 15.3537 5.17142 14.8284 5.17142C14.3031 5.17142 13.7829 5.27489 13.2976 5.47591C12.8123 5.67694 12.3713 5.97158 11.9999 6.34302L10.5859 7.75702L9.1719 6.34302L10.5859 4.92902C11.7142 3.81894 13.2355 3.19968 14.8183 3.20612C16.4011 3.21257 17.9173 3.8442 19.0365 4.96343C20.1557 6.08267 20.7874 7.59882 20.7938 9.18164C20.8002 10.7645 20.181 12.2857 19.0709 13.414L17.6569 14.828ZM14.8279 17.657L13.4139 19.071C12.8584 19.6356 12.1967 20.0847 11.4668 20.3922C10.7369 20.6998 9.95332 20.8598 9.16128 20.863C8.36925 20.8663 7.58441 20.7126 6.85204 20.411C6.11967 20.1094 5.45427 19.6658 4.89421 19.1057C4.33415 18.5457 3.89052 17.8803 3.58891 17.1479C3.2873 16.4155 3.13368 15.6307 3.1369 14.8386C3.14013 14.0466 3.30014 13.263 3.6077 12.5332C3.91527 11.8033 4.3643 11.1415 4.9289 10.586L6.3429 9.17202L7.7569 10.586L6.3429 12C5.97146 12.3715 5.67681 12.8124 5.47579 13.2978C5.27476 13.7831 5.1713 14.3032 5.1713 14.8285C5.1713 15.3538 5.27476 15.874 5.47579 16.3593C5.67681 16.8446 5.97146 17.2856 6.3429 17.657C6.71435 18.0285 7.15531 18.3231 7.64063 18.5241C8.12594 18.7252 8.6461 18.8286 9.1714 18.8286C9.6967 18.8286 10.2169 18.7252 10.7022 18.5241C11.1875 18.3231 11.6285 18.0285 11.9999 17.657L13.4139 16.243L14.8279 17.657ZM14.8279 7.75702L16.2429 9.17202L9.1719 16.242L7.7569 14.828L14.8279 7.75802V7.75702ZM5.7749 2.29302L7.7069 1.77502L8.7419 5.64002L6.8109 6.15802L5.7749 2.29402V2.29302ZM15.2579 18.361L17.1889 17.843L18.2249 21.707L16.2929 22.225L15.2579 18.361ZM2.2929 5.77502L6.1569 6.81102L5.6389 8.74202L1.7749 7.70702L2.2929 5.77502ZM18.3609 15.258L22.2249 16.293L21.7069 18.225L17.8429 17.189L18.3609 15.258Z" fill="#303030"/>
<path d="M17.6569 38.828L16.2429 37.414L17.6569 36C18.0283 35.6286 18.323 35.1876 18.524 34.7023C18.725 34.217 18.8285 33.6968 18.8285 33.1715C18.8285 32.6462 18.725 32.1261 18.524 31.6408C18.323 31.1554 18.0283 30.7145 17.6569 30.343C17.2855 29.9716 16.8445 29.6769 16.3592 29.4759C15.8739 29.2749 15.3537 29.1714 14.8284 29.1714C14.3031 29.1714 13.7829 29.2749 13.2976 29.4759C12.8123 29.6769 12.3713 29.9716 11.9999 30.343L10.5859 31.757L9.1719 30.343L10.5859 28.929C11.7142 27.8189 13.2355 27.1997 14.8183 27.2061C16.4011 27.2126 17.9173 27.8442 19.0365 28.9634C20.1557 30.0827 20.7874 31.5988 20.7938 33.1816C20.8002 34.7645 20.181 36.2857 19.0709 37.414L17.6569 38.828ZM14.8279 41.657L13.4139 43.071C12.8584 43.6356 12.1967 44.0847 11.4668 44.3922C10.7369 44.6998 9.95332 44.8598 9.16128 44.863C8.36925 44.8663 7.58441 44.7126 6.85204 44.411C6.11967 44.1094 5.45427 43.6658 4.89421 43.1057C4.33415 42.5457 3.89052 41.8803 3.58891 41.1479C3.2873 40.4155 3.13368 39.6307 3.1369 38.8386C3.14013 38.0466 3.30014 37.263 3.6077 36.5332C3.91527 35.8033 4.3643 35.1415 4.9289 34.586L6.3429 33.172L7.7569 34.586L6.3429 36C5.97146 36.3715 5.67681 36.8124 5.47579 37.2978C5.27476 37.7831 5.1713 38.3032 5.1713 38.8285C5.1713 39.3538 5.27476 39.874 5.47579 40.3593C5.67681 40.8446 5.97146 41.2856 6.3429 41.657C6.71435 42.0285 7.15531 42.3231 7.64063 42.5241C8.12594 42.7252 8.6461 42.8286 9.1714 42.8286C9.6967 42.8286 10.2169 42.7252 10.7022 42.5241C11.1875 42.3231 11.6285 42.0285 11.9999 41.657L13.4139 40.243L14.8279 41.657ZM14.8279 31.757L16.2429 33.172L9.1719 40.242L7.7569 38.828L14.8279 31.758V31.757ZM5.7749 26.293L7.7069 25.775L8.7419 29.64L6.8109 30.158L5.7749 26.294V26.293ZM15.2579 42.361L17.1889 41.843L18.2249 45.707L16.2929 46.225L15.2579 42.361ZM2.2929 29.775L6.1569 30.811L5.6389 32.742L1.7749 31.707L2.2929 29.775ZM18.3609 39.258L22.2249 40.293L21.7069 42.225L17.8429 41.189L18.3609 39.258Z" fill="#003366"/>
</svg>
