<svg width="24" height="48" viewBox="0 0 24 48" fill="none" xmlns="http://www.w3.org/2000/svg">
<path d="M5 9C5.26522 9 5.51957 9.10536 5.70711 9.29289C5.89464 9.48043 6 9.73478 6 10C7.57114 9.99769 9.09698 10.5263 10.33 11.5H12.5C13.833 11.5 15.03 12.08 15.854 13H19C19.9453 12.9997 20.8712 13.2674 21.6705 13.772C22.4698 14.2767 23.1097 14.9975 23.516 15.851C21.151 18.972 17.322 21 13 21C10.21 21 7.85 20.397 5.94 19.342C5.87004 19.5351 5.74224 19.7018 5.57402 19.8196C5.40579 19.9374 5.20534 20.0003 5 20H2C1.73478 20 1.48043 19.8946 1.29289 19.7071C1.10536 19.5196 1 19.2652 1 19V10C1 9.73478 1.10536 9.48043 1.29289 9.29289C1.48043 9.10536 1.73478 9 2 9H5ZM6.001 12L6 17.022L6.045 17.054C7.84 18.314 10.178 19 13 19C16.004 19 18.799 17.844 20.835 15.87L20.968 15.737L20.848 15.637C20.3758 15.2672 19.8034 15.0477 19.205 15.007L19 15H16.889C16.961 15.322 17 15.656 17 16V17H8V15L14.79 14.999L14.756 14.921C14.5644 14.5205 14.2696 14.1783 13.9019 13.9295C13.5343 13.6806 13.107 13.5341 12.664 13.505L12.5 13.5H9.57C9.10531 13.0247 8.55027 12.6472 7.93752 12.3896C7.32477 12.132 6.66669 11.9995 6.002 12H6.001ZM4 11H3V18H4V11ZM18 5C18.7956 5 19.5587 5.31607 20.1213 5.87868C20.6839 6.44129 21 7.20435 21 8C21 8.79565 20.6839 9.55871 20.1213 10.1213C19.5587 10.6839 18.7956 11 18 11C17.2044 11 16.4413 10.6839 15.8787 10.1213C15.3161 9.55871 15 8.79565 15 8C15 7.20435 15.3161 6.44129 15.8787 5.87868C16.4413 5.31607 17.2044 5 18 5ZM18 7C17.7348 7 17.4804 7.10536 17.2929 7.29289C17.1054 7.48043 17 7.73478 17 8C17 8.26522 17.1054 8.51957 17.2929 8.70711C17.4804 8.89464 17.7348 9 18 9C18.2652 9 18.5196 8.89464 18.7071 8.70711C18.8946 8.51957 19 8.26522 19 8C19 7.73478 18.8946 7.48043 18.7071 7.29289C18.5196 7.10536 18.2652 7 18 7ZM11 2C11.7956 2 12.5587 2.31607 13.1213 2.87868C13.6839 3.44129 14 4.20435 14 5C14 5.79565 13.6839 6.55871 13.1213 7.12132C12.5587 7.68393 11.7956 8 11 8C10.2044 8 9.44129 7.68393 8.87868 7.12132C8.31607 6.55871 8 5.79565 8 5C8 4.20435 8.31607 3.44129 8.87868 2.87868C9.44129 2.31607 10.2044 2 11 2ZM11 4C10.7348 4 10.4804 4.10536 10.2929 4.29289C10.1054 4.48043 10 4.73478 10 5C10 5.26522 10.1054 5.51957 10.2929 5.70711C10.4804 5.89464 10.7348 6 11 6C11.2652 6 11.5196 5.89464 11.7071 5.70711C11.8946 5.51957 12 5.26522 12 5C12 4.73478 11.8946 4.48043 11.7071 4.29289C11.5196 4.10536 11.2652 4 11 4Z" fill="#303030"/>
<path d="M5 33C5.26522 33 5.51957 33.1054 5.70711 33.2929C5.89464 33.4804 6 33.7348 6 34C7.57114 33.9977 9.09698 34.5263 10.33 35.5H12.5C13.833 35.5 15.03 36.08 15.854 37H19C19.9453 36.9997 20.8712 37.2674 21.6705 37.772C22.4698 38.2767 23.1097 38.9975 23.516 39.851C21.151 42.972 17.322 45 13 45C10.21 45 7.85 44.397 5.94 43.342C5.87004 43.5351 5.74224 43.7018 5.57402 43.8196C5.40579 43.9374 5.20534 44.0003 5 44H2C1.73478 44 1.48043 43.8946 1.29289 43.7071C1.10536 43.5196 1 43.2652 1 43V34C1 33.7348 1.10536 33.4804 1.29289 33.2929C1.48043 33.1054 1.73478 33 2 33H5ZM6.001 36L6 41.022L6.045 41.054C7.84 42.314 10.178 43 13 43C16.004 43 18.799 41.844 20.835 39.87L20.968 39.737L20.848 39.637C20.3758 39.2672 19.8034 39.0477 19.205 39.007L19 39H16.889C16.961 39.322 17 39.656 17 40V41H8V39L14.79 38.999L14.756 38.921C14.5644 38.5205 14.2696 38.1783 13.9019 37.9295C13.5343 37.6806 13.107 37.5341 12.664 37.505L12.5 37.5H9.57C9.10531 37.0247 8.55027 36.6472 7.93752 36.3896C7.32477 36.132 6.66669 35.9995 6.002 36H6.001ZM4 35H3V42H4V35ZM18 29C18.7956 29 19.5587 29.3161 20.1213 29.8787C20.6839 30.4413 21 31.2044 21 32C21 32.7956 20.6839 33.5587 20.1213 34.1213C19.5587 34.6839 18.7956 35 18 35C17.2044 35 16.4413 34.6839 15.8787 34.1213C15.3161 33.5587 15 32.7956 15 32C15 31.2044 15.3161 30.4413 15.8787 29.8787C16.4413 29.3161 17.2044 29 18 29ZM18 31C17.7348 31 17.4804 31.1054 17.2929 31.2929C17.1054 31.4804 17 31.7348 17 32C17 32.2652 17.1054 32.5196 17.2929 32.7071C17.4804 32.8946 17.7348 33 18 33C18.2652 33 18.5196 32.8946 18.7071 32.7071C18.8946 32.5196 19 32.2652 19 32C19 31.7348 18.8946 31.4804 18.7071 31.2929C18.5196 31.1054 18.2652 31 18 31ZM11 26C11.7956 26 12.5587 26.3161 13.1213 26.8787C13.6839 27.4413 14 28.2044 14 29C14 29.7956 13.6839 30.5587 13.1213 31.1213C12.5587 31.6839 11.7956 32 11 32C10.2044 32 9.44129 31.6839 8.87868 31.1213C8.31607 30.5587 8 29.7956 8 29C8 28.2044 8.31607 27.4413 8.87868 26.8787C9.44129 26.3161 10.2044 26 11 26ZM11 28C10.7348 28 10.4804 28.1054 10.2929 28.2929C10.1054 28.4804 10 28.7348 10 29C10 29.2652 10.1054 29.5196 10.2929 29.7071C10.4804 29.8946 10.7348 30 11 30C11.2652 30 11.5196 29.8946 11.7071 29.7071C11.8946 29.5196 12 29.2652 12 29C12 28.7348 11.8946 28.4804 11.7071 28.2929C11.5196 28.1054 11.2652 28 11 28Z" fill="#FB5039"/>
</svg>
