<svg width="24" height="48" viewBox="0 0 24 48" fill="none" xmlns="http://www.w3.org/2000/svg">
<g clip-path="url(#clip0_3052_118)">
<path d="M15.9331 8.86127C16.1206 8.67374 16.375 8.56838 16.6402 8.56838C16.9054 8.56838 17.1598 8.67374 17.3473 8.86127L23.7113 15.2252L22.2971 16.6394L16.6402 10.9826L10.9833 16.6394L16.6402 22.2963L15.226 23.7105L8.86202 17.3466C8.67448 17.159 8.56913 16.9047 8.56913 16.6394C8.56913 16.3742 8.67448 16.1199 8.86202 15.9323L15.9331 8.86127ZM15.2084 15.2076L17.3473 17.3466L15.9331 18.7608L13.7942 16.6218L15.2084 15.2076ZM8.15491 8.15416C8.94271 7.3659 9.93447 6.81262 11.019 6.55634C12.1036 6.30006 13.2381 6.35091 14.2954 6.70318L13.6626 8.60176C12.9577 8.36645 12.2011 8.33216 11.4778 8.50274C10.7545 8.67332 10.093 9.04202 9.56755 9.56751C9.04207 10.093 8.67336 10.7545 8.50278 11.4778C8.3322 12.2011 8.36649 12.9576 8.60181 13.6625L6.70393 14.2947C6.35165 13.2374 6.30081 12.1029 6.55709 11.0183C6.81337 9.93372 7.36665 8.94196 8.15491 8.15416ZM5.32649 5.32574C6.63953 4.01213 8.29246 3.09015 10.1 2.66315C11.9076 2.23614 13.7984 2.32097 15.5604 2.90814L14.9283 4.80601C13.5186 4.33618 12.0059 4.26824 10.5598 4.60983C9.11361 4.95141 7.79119 5.68901 6.7407 6.73995C5.68976 7.79044 4.95216 9.11286 4.61058 10.559C4.26899 12.0051 4.33693 13.5178 4.80676 14.9275L2.90818 15.5604C2.32096 13.7982 2.23617 11.9072 2.6633 10.0995C3.09044 8.29179 4.01263 6.63877 5.32649 5.32574Z" fill="#303030"/>
</g>
<g clip-path="url(#clip1_3052_118)">
<path d="M15.9331 32.8613C16.1206 32.6737 16.375 32.5684 16.6402 32.5684C16.9054 32.5684 17.1598 32.6737 17.3473 32.8613L23.7113 39.2252L22.2971 40.6394L16.6402 34.9826L10.9833 40.6394L16.6402 46.2963L15.226 47.7105L8.86202 41.3466C8.67448 41.159 8.56913 40.9047 8.56913 40.6394C8.56913 40.3742 8.67448 40.1199 8.86202 39.9323L15.9331 32.8613ZM15.2084 39.2076L17.3473 41.3466L15.9331 42.7608L13.7942 40.6218L15.2084 39.2076ZM8.15491 32.1542C8.94271 31.3659 9.93447 30.8126 11.019 30.5563C12.1036 30.3001 13.2381 30.3509 14.2954 30.7032L13.6626 32.6018C12.9577 32.3664 12.2011 32.3322 11.4778 32.5027C10.7545 32.6733 10.093 33.042 9.56755 33.5675C9.04207 34.093 8.67336 34.7545 8.50278 35.4778C8.3322 36.2011 8.36649 36.9576 8.60181 37.6625L6.70393 38.2947C6.35165 37.2374 6.30081 36.1029 6.55709 35.0183C6.81337 33.9337 7.36665 32.942 8.15491 32.1542ZM5.32649 29.3257C6.63953 28.0121 8.29246 27.0902 10.1 26.6631C11.9076 26.2361 13.7984 26.321 15.5604 26.9081L14.9283 28.806C13.5186 28.3362 12.0059 28.2682 10.5598 28.6098C9.11361 28.9514 7.79119 29.689 6.7407 30.74C5.68976 31.7904 4.95216 33.1129 4.61058 34.559C4.26899 36.0051 4.33693 37.5178 4.80676 38.9275L2.90818 39.5604C2.32096 37.7982 2.23617 35.9072 2.6633 34.0995C3.09044 32.2918 4.01263 30.6388 5.32649 29.3257Z" fill="#003366"/>
</g>
<defs>
<clipPath id="clip0_3052_118">
<rect width="24" height="24" fill="white"/>
</clipPath>
<clipPath id="clip1_3052_118">
<rect width="24" height="24" fill="white" transform="translate(0 24)"/>
</clipPath>
</defs>
</svg>
