<svg width="24" height="48" viewBox="0 0 24 48" fill="none" xmlns="http://www.w3.org/2000/svg">
<path d="M21 13V20C21 20.2652 20.8946 20.5196 20.7071 20.7071C20.5196 20.8946 20.2652 21 20 21H4C3.73478 21 3.48043 20.8946 3.29289 20.7071C3.10536 20.5196 3 20.2652 3 20V13H2V11L3 6H21L22 11V13H21ZM5 13V19H19V13H5ZM4.04 11H19.96L19.36 8H4.64L4.04 11ZM6 14H14V17H6V14ZM3 3H21V5H3V3Z" fill="#303030"/>
<path d="M21 37V44C21 44.2652 20.8946 44.5196 20.7071 44.7071C20.5196 44.8946 20.2652 45 20 45H4C3.73478 45 3.48043 44.8946 3.29289 44.7071C3.10536 44.5196 3 44.2652 3 44V37H2V35L3 30H21L22 35V37H21ZM5 37V43H19V37H5ZM4.04 35H19.96L19.36 32H4.64L4.04 35ZM6 38H14V41H6V38ZM3 27H21V29H3V27Z" fill="#FB5039"/>
</svg>
