<svg width="830" height="450" viewBox="0 0 830 450" fill="none" xmlns="http://www.w3.org/2000/svg">
<path d="M182.857 123.269H101.279C88.2192 123.269 77.5956 112.45 77.5956 99.1509C77.5956 85.8514 88.2192 75.0331 101.279 75.0331H216.97C224.279 75.0331 230.127 69.0781 230.127 61.6343C230.127 54.1906 224.279 48.2356 216.97 48.2356H169.602C156.542 48.2356 145.918 37.4173 145.918 24.1178C145.918 10.8183 156.542 0 169.602 0H232.954C251.472 0 829.978 0 829.978 0V450C829.978 450 251.764 450 233.539 450H138.121C125.061 450 114.437 439.182 114.437 425.882C114.437 412.583 125.061 401.764 138.121 401.764H214.436C223.11 401.764 230.225 394.618 230.225 385.686C230.225 376.853 223.207 369.607 214.436 369.607H167.068C155.47 369.607 146.016 359.98 146.016 348.169C146.016 336.359 155.47 326.731 167.068 326.731H240.751C252.349 326.731 261.803 317.104 261.803 305.293C261.803 293.483 252.349 283.855 240.751 283.855H219.699C208.1 283.855 198.646 274.228 198.646 262.417C198.646 250.607 208.1 240.979 219.699 240.979H272.329C281.004 240.979 288.119 233.833 288.119 224.901C288.119 215.968 281.101 208.822 272.329 208.822H146.113C134.515 208.822 125.061 199.195 125.061 187.384C125.061 175.573 134.515 165.946 146.113 165.946H182.955C194.553 165.946 204.007 156.319 204.007 144.508C203.909 132.896 194.553 123.269 182.857 123.269Z" fill="#113E73"/>
<path d="M32.6574 123.231C45.7405 123.231 56.3464 112.481 56.3464 99.2196C56.3464 85.9586 45.7405 75.2085 32.6574 75.2085C19.5743 75.2085 8.96838 85.9586 8.96838 99.2196C8.96838 112.481 19.5743 123.231 32.6574 123.231Z" fill="#113E73"/>
<path d="M95.8295 370.065C108.913 370.065 119.519 359.315 119.519 346.054C119.519 332.793 108.913 322.043 95.8295 322.043C82.7465 322.043 72.1405 332.793 72.1405 346.054C72.1405 359.315 82.7465 370.065 95.8295 370.065Z" fill="#113E73"/>
<path d="M21.0569 166.61H84.2277C95.8284 166.61 105.285 176.195 105.285 187.953C105.285 199.712 95.8284 209.296 84.2277 209.296H21.0569C9.45612 209.296 0 199.712 0 187.953C0 176.195 9.35863 166.61 21.0569 166.61Z" fill="#113E73"/>
<path d="M82.6678 242.003H156.367C167.968 242.003 177.424 251.588 177.424 263.346C177.424 275.105 167.968 284.689 156.367 284.689H82.6678C71.067 284.689 61.6108 275.105 61.6108 263.346C61.6108 251.588 71.067 242.003 82.6678 242.003Z" fill="#113E73"/>
</svg>
